<svg width="24" height="24" viewBox="0 0 24 24" fill="none" xmlns="http://www.w3.org/2000/svg">
<path d="M19 4C19.5523 4 20 4.44772 20 5V10C20 10.5523 19.5523 11 19 11H5C4.44772 11 4 10.5523 4 10V5C4 4.44772 4.44772 4 5 4H19ZM5 10H19V5H5V10ZM16.5 6C17.0523 6 17 6.44772 17 7H17.3896C17.7484 7.01123 18 7.08594 18 7.5C18 7.91406 17.7484 7.98878 17.3896 8H17V8.38965C16.9888 8.74836 16.9141 9 16.5 9C16.0859 9 16.0112 8.74836 16 8.38965V8C15.4477 8 15 8.05228 15 7.5C15 7.08594 15.2516 7.01123 15.6104 7H16C16 6.44772 15.9477 6 16.5 6Z" fill="black"/>
<path d="M19 13C19.5523 13 20 13.4477 20 14V19C20 19.5523 19.5523 20 19 20H5C4.44772 20 4 19.5523 4 19V14C4 13.4477 4.44772 13 5 13H19ZM5 19H19V14H5V19ZM16.5 15C17.0523 15 17 15.4477 17 16H17.3896C17.7484 16.0112 18 16.0859 18 16.5C18 16.9141 17.7484 16.9888 17.3896 17H17V17.3896C16.9888 17.7484 16.9141 18 16.5 18C16.0859 18 16.0112 17.7484 16 17.3896V17C15.4477 17 15 17.0523 15 16.5C15 16.0859 15.2516 16.0112 15.6104 16H16C16 15.4477 15.9477 15 16.5 15Z" fill="black"/>
</svg>
