<svg width="24" height="24" viewBox="0 0 24 24" fill="none" xmlns="http://www.w3.org/2000/svg">
<path d="M4 4H20V5.5H4V4Z" fill="black"/>
<path d="M4 18.5H20V20H4V18.5Z" fill="black"/>
<path d="M4 8C4 7.44772 4.44772 7 5 7H10C10.5523 7 11 7.44772 11 8V11C11 11.5523 10.5523 12 10 12H5C4.44772 12 4 11.5523 4 11V8Z" fill="black"/>
<path fill-rule="evenodd" clip-rule="evenodd" d="M19 10H14L14 16H19V10ZM14 9C13.4477 9 13 9.44772 13 10V16C13 16.5523 13.4477 17 14 17H19C19.5523 17 20 16.5523 20 16V10C20 9.44772 19.5523 9 19 9H14Z" fill="black"/>
</svg>
