<svg width="24" height="24" viewBox="0 0 24 24" fill="none" xmlns="http://www.w3.org/2000/svg">
<path d="M4 4H20V5.5H4V4Z" fill="black"/>
<path d="M4 18.5H20V20H4V18.5Z" fill="black"/>
<path d="M4 8C4 7.44772 4.44772 7 5 7H10C10.5523 7 11 7.44772 11 8V11C11 11.5523 10.5523 12 10 12H5C4.44772 12 4 11.5523 4 11V8Z" fill="black"/>
<path d="M13 10C13 9.44772 13.4477 9 14 9H19C19.5523 9 20 9.44772 20 10V10C20 10.5523 19.5523 11 19 11H14C13.4477 11 13 10.5523 13 10V10Z" fill="black"/>
<path d="M13 13C13 12.4477 13.4477 12 14 12H19C19.5523 12 20 12.4477 20 13V13C20 13.5523 19.5523 14 19 14H14C13.4477 14 13 13.5523 13 13V13Z" fill="black"/>
<path d="M13 16C13 15.4477 13.4477 15 14 15H19C19.5523 15 20 15.4477 20 16V16C20 16.5523 19.5523 17 19 17H14C13.4477 17 13 16.5523 13 16V16Z" fill="black"/>
</svg>
