<svg width="24" height="24" viewBox="0 0 24 24" fill="none" xmlns="http://www.w3.org/2000/svg">
<path d="M4 4H20V5.5H4V4Z" fill="black"/>
<path d="M4 18.5H20V20H4V18.5Z" fill="black"/>
<path d="M13 12C13 11.4477 13.4477 11 14 11H19C19.5523 11 20 11.4477 20 12V14C20 14.5523 19.5523 15 19 15H14C13.4477 15 13 14.5523 13 14V12Z" fill="black"/>
<path d="M13 9.5C13 8.94772 13.4477 9 14 9H19C19.5523 9 20 8.94772 20 9.5C20 10.0523 19.5523 10 19 10H14C13.4477 10 13 10.0523 13 9.5Z" fill="black"/>
<path d="M13 16.5013C13 15.949 13.4477 16.0013 14 16.0013H19C19.5523 16.0013 20 15.949 20 16.5013C20 17.0536 19.5523 17.0013 19 17.0013H14C13.4477 17.0013 13 17.0536 13 16.5013Z" fill="black"/>
<path fill-rule="evenodd" clip-rule="evenodd" d="M10 8H5L5 11H10V8ZM5 7C4.44772 7 4 7.44772 4 8V11C4 11.5523 4.44772 12 5 12H10C10.5523 12 11 11.5523 11 11V8C11 7.44772 10.5523 7 10 7H5Z" fill="black"/>
</svg>
