<svg width="24" height="24" viewBox="0 0 24 24" fill="none" xmlns="http://www.w3.org/2000/svg">
<path d="M10 8C10 11 7 14 4 14C7 14 10 17 10 20C10 17 13 14 16 14C13 14 10 11 10 8Z" fill="black"/>
<path d="M16 4C16 6 14 8 12 8C14 8 16 10 16 12C16 10 18 8 20 8C18 8 16 6 16 4Z" fill="black"/>
<path d="M11 5C11 5.5 11.5 6 12 6C11.5 6 11 6.5 11 7C11 6.5 10.5 6 10 6C10.5 6 11 5.5 11 5Z" fill="black"/>
<path d="M17 15C17 16 18 17 19 17C18 17 17 18 17 19C17 18 16 17 15 17C16 17 17 16 17 15Z" fill="black"/>
<path d="M17.5 12C17.5 12.25 17.75 12.5 18 12.5C17.75 12.5 17.5 12.75 17.5 13C17.5 12.75 17.25 12.5 17 12.5C17.25 12.5 17.5 12.25 17.5 12Z" fill="black"/>
<path d="M6.5 8C6.5 8.25 6.75 8.5 7 8.5C6.75 8.5 6.5 8.75 6.5 9C6.5 8.75 6.25 8.5 6 8.5C6.25 8.5 6.5 8.25 6.5 8Z" fill="black"/>
<path d="M5.5 17C5.5 17.25 5.75 17.5 6 17.5C5.75 17.5 5.5 17.75 5.5 18C5.5 17.75 5.25 17.5 5 17.5C5.25 17.5 5.5 17.25 5.5 17Z" fill="black"/>
</svg>
