<svg width="24" height="24" viewBox="0 0 24 24" fill="none" xmlns="http://www.w3.org/2000/svg">
<path d="M18 4H15.5V5.5H6C5.86739 5.5 5.74021 5.55268 5.64645 5.64645C5.55268 5.74021 5.5 5.86739 5.5 6V9H18.5H19H20V6C20 5.5 19.7893 4.96086 19.4142 4.58579C19.0391 4.21071 18.5 4 18 4ZM18.5 10.5H10V18.5H18C18.1326 18.5 18.2598 18.4473 18.3536 18.3536C18.4473 18.2598 18.5 18.1326 18.5 18V10.5ZM8.5 10.5H5.5V18C5.5 18.1326 5.55268 18.2598 5.64645 18.3536C5.74021 18.4473 5.86739 18.5 6 18.5H8.5V10.5ZM6 4H18C18.5 4 19.0391 4.21071 19.4142 4.58579C19.7893 4.96086 20 5.5 20 6V18C20 18.5304 19.7893 19.0391 19.4142 19.4142C19.0391 19.7893 18.5304 20 18 20H6C5.46957 20 4.96086 19.7893 4.58579 19.4142C4.21071 19.0391 4 18.5304 4 18V6C4 5.46957 4.21071 4.96086 4.58579 4.58579C4.96086 4.21071 5.46957 4 6 4Z" fill="black"/>
<path d="M18.2492 5.9563C18.3447 6.45927 18.6376 6.71075 19.1278 6.71075C19.4652 6.71075 19.704 6.56113 19.8441 6.2619C19.9841 5.96267 20.0542 5.47562 20.0542 4.80075C19.9141 4.99812 19.7231 5.15092 19.4812 5.25915C19.2392 5.36738 18.9686 5.4215 18.6694 5.4215C18.2619 5.4215 17.899 5.33873 17.5807 5.1732C17.2624 5.0013 17.0109 4.74982 16.8263 4.41875C16.648 4.08132 16.5589 3.67385 16.5589 3.19635C16.5589 2.72522 16.6544 2.31457 16.8454 1.9644C17.0427 1.61423 17.3197 1.34365 17.6762 1.15265C18.0391 0.96165 18.4657 0.866149 18.9559 0.866149C19.8982 0.866149 20.5571 1.15902 20.9328 1.74475C21.3084 2.33048 21.4962 3.19317 21.4962 4.3328C21.4962 5.16047 21.4198 5.84488 21.267 6.38605C21.1206 6.92085 20.8691 7.32832 20.5126 7.60845C20.1624 7.88858 19.6817 8.02865 19.0705 8.02865C18.5866 8.02865 18.1728 7.93315 17.829 7.74215C17.4916 7.55115 17.2305 7.29967 17.0459 6.9877C16.8676 6.67573 16.7658 6.33193 16.7403 5.9563H18.2492ZM19.0419 4.13225C19.3093 4.13225 19.5225 4.05267 19.6817 3.8935C19.8409 3.72797 19.9205 3.50513 19.9205 3.225C19.9205 2.9194 19.8377 2.68383 19.6722 2.5183C19.5066 2.35277 19.2838 2.27 19.0037 2.27C18.7235 2.27 18.5007 2.35595 18.3352 2.52785C18.176 2.69338 18.0964 2.92258 18.0964 3.21545C18.0964 3.48922 18.176 3.71205 18.3352 3.88395C18.5007 4.04948 18.7363 4.13225 19.0419 4.13225Z" fill="black"/>
</svg>
