<svg width="24" height="24" viewBox="0 0 24 24" fill="none" xmlns="http://www.w3.org/2000/svg">
<path d="M18 4H15.5V5.5H6C5.86739 5.5 5.74021 5.55268 5.64645 5.64645C5.55268 5.74021 5.5 5.86739 5.5 6V9H18.5H19H20V6C20 5.5 19.7893 4.96086 19.4142 4.58579C19.0391 4.21071 18.5 4 18 4ZM18.5 10.5H10V18.5H18C18.1326 18.5 18.2598 18.4473 18.3536 18.3536C18.4473 18.2598 18.5 18.1326 18.5 18V10.5ZM8.5 10.5H5.5V18C5.5 18.1326 5.55268 18.2598 5.64645 18.3536C5.74021 18.4473 5.86739 18.5 6 18.5H8.5V10.5ZM6 4H18C18.5 4 19.0391 4.21071 19.4142 4.58579C19.7893 4.96086 20 5.5 20 6V18C20 18.5304 19.7893 19.0391 19.4142 19.4142C19.0391 19.7893 18.5304 20 18 20H6C5.46957 20 4.96086 19.7893 4.58579 19.4142C4.21071 19.0391 4 18.5304 4 18V6C4 5.46957 4.21071 4.96086 4.58579 4.58579C4.96086 4.21071 5.46957 4 6 4Z" fill="black"/>
<path d="M21.2328 2.45145H18.2532V3.76935C18.3806 3.62928 18.5588 3.51468 18.788 3.42555C19.0172 3.33642 19.2655 3.29185 19.5329 3.29185C20.0104 3.29185 20.4052 3.40008 20.7171 3.61655C21.0355 3.83302 21.2679 4.11315 21.4143 4.45695C21.5607 4.80075 21.6339 5.1732 21.6339 5.5743C21.6339 6.3192 21.4238 6.9113 21.0036 7.3506C20.5834 7.78353 19.9913 8 19.2273 8C18.718 8 18.2755 7.91405 17.8999 7.74215C17.5243 7.56388 17.2346 7.31877 17.0308 7.0068C16.8271 6.69483 16.7157 6.33512 16.6966 5.92765H18.2914C18.3296 6.12502 18.422 6.29055 18.5684 6.42425C18.7148 6.55158 18.9154 6.61525 19.17 6.61525C19.4693 6.61525 19.6921 6.51975 19.8385 6.32875C19.985 6.13775 20.0582 5.88308 20.0582 5.56475C20.0582 5.25278 19.9818 5.01403 19.829 4.8485C19.6762 4.68297 19.4534 4.6002 19.1605 4.6002C18.944 4.6002 18.7658 4.65432 18.6257 4.76255C18.4856 4.86442 18.3933 5.0013 18.3487 5.1732H16.773V1.01895H21.2328V2.45145Z" fill="black"/>
</svg>
