<svg width="24" height="24" viewBox="0 0 24 24" fill="none" xmlns="http://www.w3.org/2000/svg">
<path d="M18 4H15.5V5.5H6C5.86739 5.5 5.74021 5.55268 5.64645 5.64645C5.55268 5.74021 5.5 5.86739 5.5 6V9H18.5H19H20V6C20 5.5 19.7893 4.96086 19.4142 4.58579C19.0391 4.21071 18.5 4 18 4ZM18.5 10.5H10V18.5H18C18.1326 18.5 18.2598 18.4473 18.3536 18.3536C18.4473 18.2598 18.5 18.1326 18.5 18V10.5ZM8.5 10.5H5.5V18C5.5 18.1326 5.55268 18.2598 5.64645 18.3536C5.74021 18.4473 5.86739 18.5 6 18.5H8.5V10.5ZM6 4H18C18.5 4 19.0391 4.21071 19.4142 4.58579C19.7893 4.96086 20 5.5 20 6V18C20 18.5304 19.7893 19.0391 19.4142 19.4142C19.0391 19.7893 18.5304 20 18 20H6C5.46957 20 4.96086 19.7893 4.58579 19.4142C4.21071 19.0391 4 18.5304 4 18V6C4 5.46957 4.21071 4.96086 4.58579 4.58579C4.96086 4.21071 5.46957 4 6 4Z" fill="black"/>
<path d="M16.2364 6.7585V5.4406L19.2542 1.124H21.0783V5.3451H21.8614V6.7585H21.0783V8H19.4452V6.7585H16.2364ZM19.5598 2.9194L17.9554 5.3451H19.5598V2.9194Z" fill="black"/>
</svg>
