<svg width="24" height="24" viewBox="0 0 24 24" fill="none" xmlns="http://www.w3.org/2000/svg">
<path fill-rule="evenodd" clip-rule="evenodd" d="M4.90533 5.40533C4.84559 5.46507 4.75 5.61561 4.75 6V16C4.75 16.3844 4.84559 16.5349 4.90533 16.5947C4.96507 16.6544 5.11561 16.75 5.5 16.75H6C6.41421 16.75 6.75 17.0858 6.75 17.5C6.75 17.9142 6.41421 18.25 6 18.25H5.5C4.88439 18.25 4.28493 18.0956 3.84467 17.6553C3.40441 17.2151 3.25 16.6156 3.25 16V6C3.25 5.38439 3.40441 4.78493 3.84467 4.34467C4.28493 3.90441 4.88439 3.75 5.5 3.75H15.5C16.1156 3.75 16.7151 3.90441 17.1553 4.34467C17.5956 4.78493 17.75 5.38439 17.75 6V6.5C17.75 6.91421 17.4142 7.25 17 7.25C16.5858 7.25 16.25 6.91421 16.25 6.5V6C16.25 5.61561 16.1544 5.46507 16.0947 5.40533C16.0349 5.34559 15.8844 5.25 15.5 5.25H5.5C5.11561 5.25 4.96507 5.34559 4.90533 5.40533Z" fill="black"/>
<path fill-rule="evenodd" clip-rule="evenodd" d="M7.75 9C7.75 8.58579 8.08579 8.25 8.5 8.25H10.5C10.9142 8.25 11.25 8.58579 11.25 9C11.25 9.41421 10.9142 9.75 10.5 9.75H8.5C8.08579 9.75 7.75 9.41421 7.75 9Z" fill="black"/>
<path fill-rule="evenodd" clip-rule="evenodd" d="M12.25 9C12.25 8.58579 12.5858 8.25 13 8.25H19.5C19.9142 8.25 20.25 8.58579 20.25 9C20.25 9.41421 19.9142 9.75 19.5 9.75H13C12.5858 9.75 12.25 9.41421 12.25 9Z" fill="black"/>
<path fill-rule="evenodd" clip-rule="evenodd" d="M17.25 12.5C17.25 12.0858 17.5858 11.75 18 11.75H19.5C19.9142 11.75 20.25 12.0858 20.25 12.5C20.25 12.9142 19.9142 13.25 19.5 13.25H18C17.5858 13.25 17.25 12.9142 17.25 12.5Z" fill="black"/>
<path fill-rule="evenodd" clip-rule="evenodd" d="M13.75 12.5C13.75 12.0858 14.0858 11.75 14.5 11.75H15.5C15.9142 11.75 16.25 12.0858 16.25 12.5C16.25 12.9142 15.9142 13.25 15.5 13.25H14.5C14.0858 13.25 13.75 12.9142 13.75 12.5Z" fill="black"/>
<path fill-rule="evenodd" clip-rule="evenodd" d="M7.75 12.5C7.75 12.0858 8.08579 11.75 8.5 11.75H12C12.4142 11.75 12.75 12.0858 12.75 12.5C12.75 12.9142 12.4142 13.25 12 13.25H8.5C8.08579 13.25 7.75 12.9142 7.75 12.5Z" fill="black"/>
<path fill-rule="evenodd" clip-rule="evenodd" d="M7.75 16C7.75 15.5858 8.08579 15.25 8.5 15.25H14C14.4142 15.25 14.75 15.5858 14.75 16C14.75 16.4142 14.4142 16.75 14 16.75H8.5C8.08579 16.75 7.75 16.4142 7.75 16Z" fill="black"/>
<path fill-rule="evenodd" clip-rule="evenodd" d="M15.75 16C15.75 15.5858 16.0858 15.25 16.5 15.25H19.5C19.9142 15.25 20.25 15.5858 20.25 16C20.25 16.4142 19.9142 16.75 19.5 16.75H16.5C16.0858 16.75 15.75 16.4142 15.75 16Z" fill="black"/>
<path fill-rule="evenodd" clip-rule="evenodd" d="M7.75 19.5C7.75 19.0858 8.08579 18.75 8.5 18.75H9.5C9.91421 18.75 10.25 19.0858 10.25 19.5C10.25 19.9142 9.91421 20.25 9.5 20.25H8.5C8.08579 20.25 7.75 19.9142 7.75 19.5Z" fill="black"/>
<path fill-rule="evenodd" clip-rule="evenodd" d="M11.25 19.5C11.25 19.0858 11.5858 18.75 12 18.75H15C15.4142 18.75 15.75 19.0858 15.75 19.5C15.75 19.9142 15.4142 20.25 15 20.25H12C11.5858 20.25 11.25 19.9142 11.25 19.5Z" fill="black"/>
<path fill-rule="evenodd" clip-rule="evenodd" d="M16.75 19.5C16.75 19.0858 17.0858 18.75 17.5 18.75H19.5C19.9142 18.75 20.25 19.0858 20.25 19.5C20.25 19.9142 19.9142 20.25 19.5 20.25H17.5C17.0858 20.25 16.75 19.9142 16.75 19.5Z" fill="black"/>
</svg>
