<svg width="24" height="24" viewBox="0 0 24 24" fill="none" xmlns="http://www.w3.org/2000/svg">
<path d="M6 17.5C6 17.5 6 17.5 5.5 17.5C4.5 17.5 4 17 4 16C4 15 4 7 4 6C4 5 4.5 4.5 5.5 4.5C6.5 4.5 14.5 4.5 15.5 4.5C16.5 4.5 17 5 17 6C17 7 17 6.33333 17 6.5" stroke="black" stroke-width="1.5" stroke-linecap="round"/>
<path d="M8.5 9H10.5" stroke="black" stroke-width="1.5" stroke-linecap="round"/>
<path d="M13 9H19.5" stroke="black" stroke-width="1.5" stroke-linecap="round"/>
<path d="M18 12.5H19.5" stroke="black" stroke-width="1.5" stroke-linecap="round"/>
<path d="M14.5 12.5H15.5" stroke="black" stroke-width="1.5" stroke-linecap="round"/>
<path d="M8.5 12.5H12" stroke="black" stroke-width="1.5" stroke-linecap="round"/>
<path d="M8.5 16H14" stroke="black" stroke-width="1.5" stroke-linecap="round"/>
<path d="M16.5 16H19.5" stroke="black" stroke-width="1.5" stroke-linecap="round"/>
<path d="M8.5 19.5H9.5" stroke="black" stroke-width="1.5" stroke-linecap="round"/>
<path d="M12 19.5H15" stroke="black" stroke-width="1.5" stroke-linecap="round"/>
<path d="M17.5 19.5H19.5" stroke="black" stroke-width="1.5" stroke-linecap="round"/>
</svg>
