<svg width="24" height="24" viewBox="0 0 24 24" fill="none" xmlns="http://www.w3.org/2000/svg">
<path d="M15.4626 2.54695V1.0285H18.1079V8H16.408V2.54695H15.4626Z" fill="black"/>
<path d="M14.5959 17.9958C14.6214 17.3146 14.8442 16.7893 15.2644 16.42C15.6846 16.0508 16.2545 15.8661 16.9739 15.8661C17.4514 15.8661 17.8589 15.9489 18.1963 16.1144C18.5401 16.28 18.7979 16.506 18.9698 16.7925C19.1481 17.079 19.2372 17.4005 19.2372 17.757C19.2372 18.1772 19.1322 18.521 18.9221 18.7884C18.712 19.0495 18.4669 19.2277 18.1867 19.3232V19.3614C18.5496 19.4824 18.8361 19.683 19.0462 19.9631C19.2563 20.2432 19.3614 20.6029 19.3614 21.0422C19.3614 21.437 19.2691 21.7871 19.0844 22.0927C18.9062 22.392 18.642 22.6275 18.2918 22.7994C17.948 22.9713 17.5373 23.0573 17.0598 23.0573C16.2958 23.0573 15.6846 22.8695 15.2262 22.4938C14.7742 22.1182 14.5355 21.5516 14.51 20.7939H16.0953C16.1017 21.0741 16.1812 21.2969 16.334 21.4624C16.4868 21.6216 16.7097 21.7012 17.0025 21.7012C17.2508 21.7012 17.4418 21.6312 17.5755 21.4911C17.7156 21.3447 17.7856 21.1537 17.7856 20.9181C17.7856 20.6125 17.687 20.3928 17.4896 20.2591C17.2986 20.1191 16.9898 20.049 16.5632 20.049H16.2576V18.7216H16.5632C16.8879 18.7216 17.149 18.6675 17.3463 18.5592C17.5501 18.4446 17.6519 18.2441 17.6519 17.9576C17.6519 17.7284 17.5883 17.5501 17.4609 17.4228C17.3336 17.2955 17.1585 17.2318 16.9357 17.2318C16.6938 17.2318 16.5123 17.305 16.3913 17.4514C16.2767 17.5979 16.2099 17.7793 16.1908 17.9958H14.5959Z" fill="black"/>
<path d="M4.64454 13.6916C4.86101 13.5197 4.95969 13.4402 4.94059 13.4529C5.56453 12.9372 6.05476 12.5138 6.41129 12.1827C6.77419 11.8517 7.07979 11.5047 7.3281 11.1418C7.5764 10.7789 7.70055 10.4255 7.70055 10.0817C7.70055 9.82072 7.64006 9.61698 7.51909 9.47055C7.39813 9.32412 7.21668 9.2509 6.97474 9.2509C6.73281 9.2509 6.54181 9.34322 6.40174 9.52785C6.26804 9.70612 6.20119 9.96078 6.20119 10.2918H4.62544C4.63818 9.75068 4.75278 9.29865 4.96924 8.93575C5.19208 8.57285 5.48176 8.30545 5.83829 8.13355C6.20119 7.96165 6.60229 7.8757 7.04159 7.8757C7.79923 7.8757 8.36904 8.06988 8.75104 8.45825C9.13941 8.84662 9.3336 9.35277 9.3336 9.9767C9.3336 10.6579 9.10121 11.2914 8.63644 11.8771C8.17168 12.4565 7.57958 13.0231 6.86015 13.577H9.43864V14.9045H4.64454V13.6916Z" fill="black"/>
<path d="M13 2.5L12 6.5H3C2.72386 6.5 2.5 6.72386 2.5 7V17C2.5 17.2761 2.72386 17.5 3 17.5H12L13 21.5V23L12 19H3C1.89543 19 1 18.1046 1 17V7C1 5.89543 1.89543 5 3 5H12L13 1V2.5ZM21 1C22.1046 1 23 1.89543 23 3V21C23 22.1046 22.1046 23 21 23V21.5C21.2761 21.5 21.5 21.2761 21.5 21V3C21.5 2.72386 21.2761 2.5 21 2.5V1Z" fill="black"/>
<path d="M12 11H21.5V12.5H12V11Z" fill="black"/>
<path d="M11.5 1H13V23H11.5L11.5 1Z" fill="black"/>
</svg>
